<svg width="15" height="13" viewBox="0 0 15 13" fill="none" xmlns="http://www.w3.org/2000/svg">
<path d="M5.44336 9.13843H12.2285C12.5859 9.13843 12.9023 8.88062 12.9023 8.48218C12.9023 8.0896 12.5859 7.83179 12.2285 7.83179H5.625C5.42578 7.83179 5.30273 7.69116 5.27344 7.48022L5.18555 6.88843H12.334C13.2949 6.88843 13.8223 6.31421 13.9629 5.34155L14.3555 2.66382C14.3672 2.58179 14.3848 2.47046 14.3848 2.38843C14.3848 1.95483 14.0977 1.65015 13.5645 1.65015H4.44141L4.37695 1.18726C4.28906 0.5896 4.01367 0.284912 3.27539 0.284912H1.34766C0.955078 0.284912 0.615234 0.618896 0.615234 1.02319C0.615234 1.42749 0.955078 1.76147 1.34766 1.76147H2.95312L3.80859 7.60327C3.95508 8.55835 4.47656 9.13843 5.44336 9.13843ZM12.8203 2.95679L12.5156 5.23608C12.4805 5.44702 12.375 5.57593 12.1699 5.57593L5.00391 5.58179L4.62891 2.95679H12.8203ZM5.94141 12.2146C6.57422 12.2146 7.07812 11.7107 7.07812 11.0779C7.07812 10.4509 6.57422 9.94702 5.94141 9.94702C5.32031 9.94702 4.81055 10.4509 4.81055 11.0779C4.81055 11.7107 5.32031 12.2146 5.94141 12.2146ZM11.2559 12.2146C11.8828 12.2146 12.3867 11.7107 12.3867 11.0779C12.3867 10.4509 11.8828 9.94702 11.2559 9.94702C10.6289 9.94702 10.1191 10.4509 10.1191 11.0779C10.1191 11.7107 10.6289 12.2146 11.2559 12.2146Z" fill="white"/>
</svg>
